<svg width="29" height="25" viewBox="0 0 29 25" fill="none" xmlns="http://www.w3.org/2000/svg">
<path d="M13.4573 14.3674C13.8648 14.7749 14.5255 14.7749 14.9329 14.3674L21.5732 7.72714C21.9807 7.31966 21.9807 6.659 21.5732 6.25152C21.1658 5.84404 20.5051 5.84404 20.0976 6.25152L14.1951 12.154L8.29263 6.25152C7.88515 5.84404 7.22449 5.84404 6.81701 6.25152C6.40953 6.659 6.40953 7.31966 6.81701 7.72714L13.4573 14.3674ZM13.1517 0V13.6296H15.2385V0H13.1517ZM25.9566 13.6296V19.5926H28.0434V13.6296H25.9566ZM23.5517 21.9566H5.44827V24.0434H23.5517V21.9566ZM3.04342 19.5926V13.6296H0.956577V19.5926H3.04342ZM5.44827 21.9566C4.10835 21.9566 3.04342 20.8865 3.04342 19.5926H0.956577C0.956577 22.0624 2.97934 24.0434 5.44827 24.0434V21.9566ZM25.9566 19.5926C25.9566 20.8865 24.8917 21.9566 23.5517 21.9566V24.0434C26.0207 24.0434 28.0434 22.0624 28.0434 19.5926H25.9566Z" fill="white"/>
</svg>
