<svg width="134" height="37" viewBox="0 0 134 37" fill="none" xmlns="http://www.w3.org/2000/svg">
<g clip-path="url(#clip0)">
<path fill-rule="evenodd" clip-rule="evenodd" d="M55.7845 18.8291L55.3773 17.7329L52.2322 17.7316L52.233 36.9999C52.7904 36.9559 53.651 36.6325 54.1728 36.4757C56.5131 35.7723 55.946 36.7222 55.9471 30.5242C58.5287 31.2519 60.1904 31.2116 62.1198 29.6793C65.1937 27.2379 65.57 20.4137 61.9206 18.2049C59.1025 16.4993 57.2762 17.999 55.7845 18.8291ZM115.915 28.129L117.321 28.1297C118.739 28.1301 119.972 27.619 119.808 26.0626C119.66 24.6549 118.191 24.533 116.772 24.5334L115.916 24.5333L115.915 28.129ZM17.4106 22.6639L21.9845 22.6642C21.6251 19.2101 17.6659 19.5118 17.4106 22.6639ZM30.7359 22.7689L31.8675 22.7689C32.8839 22.7687 34.0772 22.6531 34.2425 21.7586C34.4713 20.5205 33.4177 20.2471 32.417 20.2469L30.7363 20.2465L30.7359 22.7689ZM30.6728 28.2043L31.1803 28.236L32.1422 28.2306C33.4795 28.2305 35.2888 27.6434 34.5332 26.004C34.0659 24.9904 31.9259 24.9882 30.6669 25.123L30.6728 28.2043ZM42.72 22.6639L47.3039 22.664C46.9338 19.1749 43.0064 19.5256 42.72 22.6639ZM57.7763 20.3859C56.7616 20.7723 56.0347 21.1062 56.0347 21.7173C56.0347 22.8535 55.9768 23.9907 55.9432 26.6116C55.9338 27.3354 55.9457 27.8594 56.227 27.9497C56.9059 28.415 58.2199 28.3248 58.9157 27.9772C61.7243 26.5739 61.6022 18.9292 57.7763 20.3859ZM93.9113 27.5209L93.9734 24.8823C92.4198 24.8914 89.9447 24.7104 90.0685 26.6045C90.1893 28.4561 92.7085 28.2696 93.9113 27.5209ZM75.8633 20.6589L79.3904 20.7021L79.4389 30.6988L83.1074 30.7254L83.1517 20.7249L86.2803 20.6957L87.1767 17.73L75.8631 17.7253L75.8633 20.6589ZM75.8473 29.8237L74.9952 27.3375C67.7132 30.6841 67.2271 19.5796 73.1486 20.315C74.1609 20.4407 74.476 20.8414 75.2076 21.0963L75.2138 18.1199C72.9536 17.4104 70.5384 16.9384 68.1429 18.596C66.4949 19.7363 65.2808 21.8218 65.4275 24.7832C65.5689 27.6365 66.9091 29.4309 68.7947 30.3743C71.375 31.6652 73.7015 30.7684 75.8473 29.8237ZM98.1109 28.267L99.0789 30.995C101.463 30.8078 102.74 29.5184 103.425 27.6878C104.231 25.5316 103.926 23.023 104.168 20.6981L106.955 20.7049L106.985 30.7231L110.669 30.7185L110.695 17.7633C109.713 17.6493 101.409 17.633 100.763 17.8068C100.764 19.8843 100.919 25.0842 99.991 26.8673C99.456 27.8956 99.0295 27.7099 98.1109 28.267ZM112.206 18.283L112.202 30.7558C116.237 30.7487 121.821 31.3415 123.223 27.9814C124.091 25.9008 123.21 23.8635 121.908 22.9629C120.341 21.8794 118.057 21.9389 115.915 21.9394L115.915 17.2108L112.206 18.283ZM25.3449 29.4525L24.5688 27.1546C23.076 27.4828 22.1772 28.3855 20.0786 27.9615C18.7081 27.6847 17.5504 26.8117 17.5042 25.2875L25.7901 25.2563C25.79 21.379 24.7616 18.6837 21.7151 17.7471C17.9925 16.6025 15.264 18.7318 14.2262 21.4404C13.1851 24.1578 13.751 28.0408 16.3612 29.9063C18.7654 31.6245 23.1794 31.1477 25.3449 29.4525ZM50.6731 29.5233L49.8738 27.15C48.4417 27.5643 47.396 28.3226 45.4825 27.981C44.1551 27.744 42.7864 26.7215 42.8475 25.2622L51.1005 25.2613C51.1005 21.3045 50.161 18.7216 47.0016 17.7323C44.0422 16.8058 40.772 18.1203 39.5752 21.3692C37.3913 27.2973 42.0583 34.1066 50.6731 29.5233ZM14.1901 29.428L13.2469 26.719C11.1939 27.5838 8.83699 28.4377 6.68514 27.0639C2.5754 24.44 2.85728 14.8281 10.4238 15.5655C11.9289 15.7123 12.4586 16.2747 13.5627 16.5545L13.5628 13.303C9.4854 10.879 -0.469403 13.0158 0.017025 22.4574C0.316018 28.2624 4.36574 31.4021 9.5635 30.9565C10.4157 30.8834 11.3469 30.6818 12.0335 30.4306C12.8786 30.1214 13.5462 29.6505 14.1901 29.428ZM87.2162 18.8199C87.4122 19.4084 88.0745 20.7198 88.3722 21.1575C90.6948 19.7485 94.4414 19.9603 93.8939 22.3878C91.9333 22.5843 85.5513 22.0959 86.4038 27.5697C86.8608 30.5039 89.8025 31.4981 92.2017 30.7743C93.2211 30.4669 93.5605 29.9901 94.2557 29.6342L94.7598 30.7327L97.6422 30.7232C97.8076 28.8921 97.6741 26.4336 97.6741 24.5337C97.6742 20.444 97.826 17.4382 92.1777 17.4802C89.1847 17.5024 88.9614 18.1662 87.2162 18.8199ZM26.9225 30.2027L26.9465 30.7245C30.6775 30.7142 38.8768 31.8082 38.3647 26.3255C38.171 24.2513 37.1568 24.3574 35.7191 23.5793C37.7105 22.8795 38.2868 21.331 37.6443 19.6817C37.1143 18.3213 35.3245 17.7225 33.3787 17.7224L26.9218 17.7225L26.9225 30.2027Z" fill="#22589E"/>
<path fill-rule="evenodd" clip-rule="evenodd" d="M123.46 0.937764H123.459C122.039 1.33382 120.812 1.78808 119.756 2.27615C118.683 2.77242 117.785 3.30397 117.039 3.84843C116.255 4.41968 115.536 5.13379 115.335 5.91727C115.134 6.69794 115.421 7.67366 115.83 8.55574C116.228 9.39091 116.756 10.2927 117.453 11.2499C117.425 10.9764 117.434 10.7146 117.486 10.4734C117.651 9.71079 118.294 9.02586 118.994 8.48049C119.505 8.08528 120.094 7.69982 120.771 7.33469C121.865 6.74549 123.19 6.20608 124.787 5.75975C126.385 5.31221 127.799 5.08645 129.035 5.02417C129.061 4.24827 129.024 3.54061 128.939 2.89909C128.823 2.013 128.555 1.11016 127.983 0.582952C127.799 0.414838 127.574 0.27513 127.322 0.161652C126.165 0.29098 124.881 0.539749 123.46 0.937764Z" fill="url(#paint0_linear)"/>
<path fill-rule="evenodd" clip-rule="evenodd" d="M129.274 0.0478821H129.254H129.226C128.634 0.0489341 128 0.0847029 127.322 0.161641C127.574 0.275119 127.799 0.414828 127.983 0.582941C128.555 1.11014 128.823 2.01299 128.94 2.89907C129.024 3.5406 129.061 4.24826 129.035 5.02416C128.995 6.2727 128.796 7.69868 128.381 9.31627V9.31719C127.966 10.936 127.453 12.2813 126.889 13.3943C127.54 13.8027 128.167 14.1243 128.759 14.3716C129.577 14.7115 130.485 14.9293 131.225 14.6935C131.462 14.6173 131.693 14.4886 131.919 14.326C132.385 13.2515 132.811 12.0078 133.181 10.5725C133.551 9.12747 133.77 7.82366 133.878 6.65059C133.984 5.47309 133.976 4.42703 133.892 3.5056C133.804 2.53515 133.537 1.5508 132.967 0.984884C132.396 0.418334 131.414 0.181068 130.452 0.0978882C130.08 0.0656963 129.687 0.0484432 129.274 0.0478821Z" fill="url(#paint1_linear)"/>
<path fill-rule="evenodd" clip-rule="evenodd" d="M118.994 8.48048C118.294 9.02585 117.651 9.71078 117.486 10.4734C117.434 10.7146 117.425 10.9764 117.453 11.2499C118.142 12.198 118.994 13.2003 120.048 14.2455C121.098 15.2851 122.1 16.1277 123.046 16.8065C124.001 17.4904 124.9 18.0069 125.735 18.3859C126.624 18.7902 127.607 19.0688 128.386 18.8513C129.166 18.6331 129.867 17.8844 130.423 17.0767C130.944 16.3167 131.451 15.408 131.919 14.326C131.693 14.4886 131.463 14.6173 131.225 14.6935C130.485 14.9293 129.577 14.7115 128.759 14.3716C128.167 14.1243 127.54 13.8027 126.889 13.3943C125.833 12.734 124.709 11.8462 123.525 10.6749V10.6739C122.344 9.50326 121.443 8.38425 120.771 7.33469C120.094 7.69981 119.505 8.08527 118.994 8.48048Z" fill="url(#paint2_linear)"/>
<path fill-rule="evenodd" clip-rule="evenodd" d="M123.525 0.887171L123.523 0.888012C122.106 1.28441 120.88 1.73889 119.824 2.2252C118.754 2.72001 117.858 3.25037 117.113 3.79398C116.33 4.36579 115.613 5.07661 115.413 5.85903C115.212 6.63956 115.498 7.61275 115.907 8.49274C116.305 9.32734 116.831 10.227 117.526 11.1813C117.499 10.9097 117.507 10.6492 117.559 10.4069C117.724 9.64519 118.366 8.96096 119.066 8.41769C119.574 8.02283 120.161 7.63863 120.838 7.2752C121.93 6.68543 123.253 6.14687 124.846 5.70109H124.848C126.442 5.25573 127.851 5.02941 129.09 4.96818C129.113 4.192 129.077 3.487 128.993 2.84667C128.875 1.96262 128.609 1.06153 128.037 0.534883C127.855 0.36649 127.63 0.226781 127.378 0.113373C126.223 0.243543 124.943 0.491189 123.525 0.887171Z" fill="url(#paint3_linear)"/>
<path fill-rule="evenodd" clip-rule="evenodd" d="M129.332 0H129.312H129.284C128.691 0.00112216 128.056 0.0371013 127.378 0.113478C127.63 0.226886 127.855 0.366595 128.037 0.534989C128.609 1.06163 128.875 1.96272 128.993 2.84677C129.077 3.48711 129.113 4.1921 129.09 4.96828C129.048 6.21423 128.849 7.63783 128.434 9.25128V9.25254C128.02 10.8692 127.51 12.2124 126.946 13.3226C127.596 13.731 128.22 14.052 128.81 14.2981C129.628 14.638 130.536 14.8544 131.273 14.6186C131.512 14.543 131.743 14.4163 131.967 14.2529C132.43 13.18 132.858 11.94 133.226 10.5067C133.596 9.06283 133.815 7.76161 133.92 6.59149C134.028 5.41574 134.02 4.37354 133.935 3.45099C133.847 2.48341 133.583 1.50061 133.014 0.936932C132.444 0.371013 131.462 0.133747 130.502 0.0493048C130.133 0.0180948 129.741 0.000561079 129.332 0V0Z" fill="url(#paint4_linear)"/>
<path fill-rule="evenodd" clip-rule="evenodd" d="M119.066 8.41777C118.366 8.96103 117.724 9.64527 117.559 10.407C117.507 10.6492 117.499 10.9098 117.525 11.1814C118.214 12.129 119.065 13.1286 120.118 14.1732C121.165 15.2104 122.167 16.0531 123.11 16.731C124.063 17.4119 124.96 17.9273 125.793 18.3056C126.681 18.7087 127.662 18.9877 128.44 18.769C129.218 18.5517 129.918 17.8035 130.473 16.9985C130.994 16.2391 131.498 15.3333 131.967 14.2528C131.743 14.4163 131.512 14.543 131.273 14.6186C130.536 14.8544 129.628 14.638 128.81 14.2981C128.22 14.052 127.596 13.731 126.946 13.3226C125.892 12.6637 124.769 11.7783 123.59 10.6084H123.587C122.409 9.43914 121.511 8.32077 120.838 7.27527C120.161 7.63871 119.574 8.02291 119.066 8.41777Z" fill="url(#paint5_linear)"/>
</g>
<defs>
<linearGradient id="paint0_linear" x1="114.661" y1="8.34218" x2="133.541" y2="3.15089" gradientUnits="userSpaceOnUse">
<stop stop-color="#DE2A29"/>
<stop offset="0.658824" stop-color="#9C2F2A"/>
<stop offset="0.768627" stop-color="#652B26"/>
<stop offset="1" stop-color="#652B26"/>
</linearGradient>
<linearGradient id="paint1_linear" x1="132.927" y1="-0.154457" x2="127.867" y2="18.5986" gradientUnits="userSpaceOnUse">
<stop stop-color="#3AA7DC"/>
<stop offset="0.709804" stop-color="#30667F"/>
<stop offset="1" stop-color="#252422"/>
</linearGradient>
<linearGradient id="paint2_linear" x1="117.547" y1="7.20094" x2="131.906" y2="18.9429" gradientUnits="userSpaceOnUse">
<stop stop-color="#504B4B"/>
<stop offset="0.509804" stop-color="#999798"/>
<stop offset="1" stop-color="#E3E3E5"/>
</linearGradient>
<linearGradient id="paint3_linear" x1="114.74" y1="8.27904" x2="133.585" y2="3.09714" gradientUnits="userSpaceOnUse">
<stop stop-color="#DC2729"/>
<stop offset="0.670588" stop-color="#A92A28"/>
<stop offset="0.768627" stop-color="#7C2925"/>
<stop offset="1" stop-color="#7C2925"/>
</linearGradient>
<linearGradient id="paint4_linear" x1="132.97" y1="-0.203461" x2="127.926" y2="18.4917" gradientUnits="userSpaceOnUse">
<stop stop-color="#267CBC"/>
<stop offset="0.690196" stop-color="#3B4C60"/>
<stop offset="0.901961" stop-color="#252422"/>
<stop offset="1" stop-color="#252422"/>
</linearGradient>
<linearGradient id="paint5_linear" x1="117.621" y1="7.14124" x2="131.954" y2="18.8617" gradientUnits="userSpaceOnUse">
<stop stop-color="#817E80"/>
<stop offset="0.321569" stop-color="#B2B0B2"/>
<stop offset="1" stop-color="#E3E3E5"/>
</linearGradient>
<clipPath id="clip0">
<rect width="134" height="37" fill="white"/>
</clipPath>
</defs>
</svg>
