<svg width="453" height="177" viewBox="0 0 453 177" fill="none" xmlns="http://www.w3.org/2000/svg">
<path d="M451 176.5V62.2317C451 34.7588 430.399 11.7444 403.016 9.52345C360.971 6.11328 295.878 2 226.5 2C157.122 2 92.0286 6.11328 49.9838 9.52345C22.6008 11.7444 2 34.7588 2 62.2317V176.5M168 41H280C284.418 41 288 37.4183 288 33C288 28.5817 284.418 25 280 25H168C163.582 25 160 28.5817 160 33C160 37.4183 163.582 41 168 41ZM313 41C308.582 41 305 37.4183 305 33C305 28.5817 308.582 25 313 25C317.418 25 321 28.5817 321 33C321 37.4183 317.418 41 313 41Z" stroke="#CAD2E8" stroke-width="3"/>
</svg>
